<?xml version="1.0" standalone="no"?>
<!DOCTYPE svg PUBLIC "-//W3C//DTD SVG 20010904//EN"
 "http://www.w3.org/TR/2001/REC-SVG-20010904/DTD/svg10.dtd">
<svg version="1.0" xmlns="http://www.w3.org/2000/svg"
 width="256.000000pt" height="236.000000pt" viewBox="0 0 256.000000 236.000000"
 preserveAspectRatio="xMidYMid meet">

<g transform="translate(0.000000,236.000000) scale(0.100000,-0.100000)"
fill="#000000" stroke="none">
<path d="M682 2300 c-60 -25 -40 -153 35 -221 50 -46 123 -90 157 -96 54 -9
61 17 35 129 -29 126 -146 222 -227 188z"/>
<path d="M1137 2288 c-22 -18 -47 -80 -47 -120 1 -18 10 -58 21 -88 11 -30 46
-131 78 -224 l57 -169 54 -14 c30 -7 74 -24 97 -38 l43 -23 -5 31 c-4 30 -56
190 -124 377 -18 50 -31 105 -31 133 0 55 -18 96 -56 126 -30 24 -62 27 -87 9z"/>
<path d="M383 2015 c-50 -35 -14 -148 74 -234 31 -31 53 -49 49 -41 -5 8 4 4
20 -10 16 -14 30 -28 32 -32 6 -13 31 -9 59 9 19 12 28 14 30 6 3 -7 11 -9 20
-6 10 4 14 2 9 -5 -3 -6 -1 -14 5 -18 31 -19 -48 159 -110 250 -52 75 -142
114 -188 81z"/>
<path d="M1085 1646 c-171 -41 -309 -203 -322 -378 -21 -276 211 -493 489
-456 116 15 242 100 302 202 68 116 75 278 16 401 -86 181 -291 278 -485 231z
m125 -6 c0 -5 -7 -10 -15 -10 -8 0 -15 5 -15 10 0 6 7 10 15 10 8 0 15 -4 15
-10z m-100 -10 c0 -5 -7 -10 -16 -10 -8 0 -12 5 -9 10 3 6 10 10 16 10 5 0 9
-4 9 -10z m47 4 c-3 -3 -12 -4 -19 -1 -8 3 -5 6 6 6 11 1 17 -2 13 -5z m103
-4 c0 -5 -4 -10 -9 -10 -6 0 -13 5 -16 10 -3 6 1 10 9 10 9 0 16 -4 16 -10z
m55 -10 c3 -5 -1 -10 -9 -10 -9 0 -16 5 -16 10 0 6 4 10 9 10 6 0 13 -4 16
-10z m-260 -10 c-3 -5 -10 -10 -16 -10 -5 0 -9 5 -9 10 0 6 7 10 16 10 8 0 12
-4 9 -10z m305 -10 c0 -5 -4 -10 -10 -10 -5 0 -10 5 -10 10 0 6 5 10 10 10 6
0 10 -4 10 -10z m-355 -10 c-3 -5 -11 -10 -16 -10 -6 0 -7 5 -4 10 3 6 11 10
16 10 6 0 7 -4 4 -10z m289 -11 c30 -11 78 -40 105 -65 138 -124 143 -324 11
-448 -63 -59 -110 -79 -191 -79 -113 -2 -205 58 -252 162 -30 68 -22 176 18
233 47 66 104 101 174 106 72 5 121 -10 168 -51 135 -119 71 -328 -107 -352
-64 -9 -111 7 -150 51 -25 30 -30 43 -30 89 0 46 5 59 30 89 63 71 173 80 234
20 56 -57 17 -176 -52 -160 -34 8 -40 8 -75 0 -54 -13 -86 45 -51 94 23 33 55
43 97 30 32 -10 36 -16 39 -47 3 -34 4 -35 16 -14 43 76 -97 125 -164 58 -28
-28 -33 -88 -9 -122 40 -57 149 -50 204 12 112 128 -46 313 -198 233 -123 -64
-148 -205 -54 -309 61 -67 179 -87 262 -44 86 44 138 142 128 240 -14 134
-112 224 -253 233 -86 5 -139 -15 -208 -78 -64 -60 -89 -129 -84 -236 5 -92
28 -141 95 -206 60 -58 123 -81 223 -82 77 -1 91 2 145 31 96 50 167 139 182
226 9 58 27 60 19 1 -9 -72 -67 -186 -121 -238 -60 -59 -124 -81 -235 -81 -75
0 -93 4 -150 31 -92 44 -143 93 -182 172 -31 63 -33 73 -33 172 0 96 3 110 28
159 85 161 258 231 421 170z m114 -7 c2 -7 -2 -10 -12 -6 -9 3 -16 11 -16 16
0 13 23 5 28 -10z m-453 -12 c-3 -5 -11 -10 -16 -10 -6 0 -7 5 -4 10 3 6 11
10 16 10 6 0 7 -4 4 -10z m495 -21 c0 -6 -4 -7 -10 -4 -5 3 -10 11 -10 16 0 6
5 7 10 4 6 -3 10 -11 10 -16z m-530 -7 c0 -13 -12 -22 -22 -16 -10 6 -1 24 13
24 5 0 9 -4 9 -8z m570 -22 c0 -5 -4 -10 -10 -10 -5 0 -10 5 -10 10 0 6 5 10
10 10 6 0 10 -4 10 -10z m-618 -32 c-7 -7 -12 -8 -12 -2 0 14 12 26 19 19 2
-3 -1 -11 -7 -17z m653 -7 c3 -5 1 -12 -4 -15 -5 -3 -11 1 -15 9 -6 16 9 21
19 6z m-683 -33 c-7 -7 -12 -8 -12 -2 0 14 12 26 19 19 2 -3 -1 -11 -7 -17z
m708 -19 c0 -6 -4 -7 -10 -4 -5 3 -10 11 -10 16 0 6 5 7 10 4 6 -3 10 -11 10
-16z m-726 -24 c-6 -16 -24 -21 -24 -7 0 11 11 22 21 22 5 0 6 -7 3 -15z m746
-21 c0 -8 -4 -12 -10 -9 -5 3 -10 10 -10 16 0 5 5 9 10 9 6 0 10 -7 10 -16z
m-766 -29 c-4 -8 -8 -15 -10 -15 -2 0 -4 7 -4 15 0 8 4 15 10 15 5 0 7 -7 4
-15z m786 -26 c0 -5 -4 -9 -10 -9 -5 0 -10 7 -10 16 0 8 5 12 10 9 6 -3 10
-10 10 -16z m-796 -24 c-4 -8 -8 -15 -10 -15 -2 0 -4 7 -4 15 0 8 4 15 10 15
5 0 7 -7 4 -15z m806 -26 c0 -5 -4 -9 -10 -9 -5 0 -10 7 -10 16 0 8 5 12 10 9
6 -3 10 -10 10 -16z m-810 -24 c0 -8 -4 -15 -10 -15 -5 0 -10 7 -10 15 0 8 5
15 10 15 6 0 10 -7 10 -15z m810 -31 c0 -8 -4 -14 -10 -14 -5 0 -10 9 -10 21
0 11 5 17 10 14 6 -3 10 -13 10 -21z m-810 -19 c0 -8 -4 -15 -10 -15 -5 0 -10
7 -10 15 0 8 5 15 10 15 6 0 10 -7 10 -15z m796 -42 c-10 -10 -19 5 -10 18 6
11 8 11 12 0 2 -7 1 -15 -2 -18z m-786 -19 c0 -8 -4 -12 -10 -9 -5 3 -10 10
-10 16 0 5 5 9 10 9 6 0 10 -7 10 -16z m776 -31 c-10 -10 -19 5 -10 18 6 11 8
11 12 0 2 -7 1 -15 -2 -18z m-756 -24 c0 -5 -4 -9 -10 -9 -5 0 -10 7 -10 16 0
8 5 12 10 9 6 -3 10 -10 10 -16z m736 -26 c-10 -10 -19 5 -10 18 6 11 8 11 12
0 2 -7 1 -15 -2 -18z m-721 -13 c3 -5 1 -10 -4 -10 -6 0 -11 5 -11 10 0 6 2
10 4 10 3 0 8 -4 11 -10z m705 -19 c0 -6 -4 -13 -10 -16 -5 -3 -10 1 -10 9 0
9 5 16 10 16 6 0 10 -4 10 -9z m-672 -29 c6 -18 -15 -14 -22 4 -4 10 -1 14 6
12 6 -2 14 -10 16 -16z m637 -21 c-3 -6 -11 -11 -17 -11 -6 0 -6 6 2 15 14 17
26 13 15 -4z m-605 -22 c0 -6 -4 -7 -10 -4 -5 3 -10 11 -10 16 0 6 5 7 10 4 6
-3 10 -11 10 -16z m562 -21 c-7 -7 -12 -8 -12 -2 0 14 12 26 19 19 2 -3 -1
-11 -7 -17z m-527 -9 c11 -17 -1 -21 -15 -4 -8 9 -8 15 -2 15 6 0 14 -5 17
-11z m487 -21 c-7 -7 -12 -8 -12 -2 0 14 12 26 19 19 2 -3 -1 -11 -7 -17z
m-438 -19 c-6 -11 -24 -2 -24 11 0 5 7 7 15 4 8 -4 12 -10 9 -15z m398 -11
c-6 -6 -15 -8 -19 -4 -4 4 -1 11 7 16 19 12 27 3 12 -12z m-352 -8 c0 -5 -4
-10 -9 -10 -6 0 -13 5 -16 10 -3 6 1 10 9 10 9 0 16 -4 16 -10z m305 -10 c-3
-5 -10 -10 -16 -10 -5 0 -9 5 -9 10 0 6 7 10 16 10 8 0 12 -4 9 -10z m-255
-10 c0 -5 -7 -7 -15 -4 -8 4 -15 8 -15 10 0 2 7 4 15 4 8 0 15 -4 15 -10z
m210 0 c0 -5 -7 -10 -16 -10 -8 0 -12 5 -9 10 3 6 10 10 16 10 5 0 9 -4 9 -10z
m-160 -10 c0 -5 -4 -10 -9 -10 -6 0 -13 5 -16 10 -3 6 1 10 9 10 9 0 16 -4 16
-10z m55 0 c3 -5 -3 -10 -15 -10 -12 0 -18 5 -15 10 3 6 10 10 15 10 5 0 12
-4 15 -10z m55 0 c0 -5 -7 -10 -15 -10 -8 0 -15 5 -15 10 0 6 7 10 15 10 8 0
15 -4 15 -10z"/>
<path d="M1164 1256 c-9 -24 4 -48 23 -44 12 2 18 12 18 28 0 29 -32 41 -41
16z"/>
<path d="M267 1553 c-15 -25 -16 -75 -4 -110 22 -65 104 -179 200 -280 82 -85
92 -93 106 -78 9 9 16 32 16 56 0 33 2 38 10 24 26 -45 71 -86 120 -110 30
-14 56 -25 58 -25 3 0 -3 23 -14 50 -10 28 -19 61 -19 75 0 15 -9 29 -22 36
-13 7 -104 92 -204 191 -156 153 -185 178 -212 178 -17 0 -33 -3 -35 -7z"/>
<path d="M605 1010 c-4 -6 23 -43 60 -82 87 -92 152 -192 204 -316 51 -120 92
-171 162 -201 64 -28 180 -38 246 -22 59 15 194 82 236 117 43 36 77 93 77
130 0 51 -58 124 -139 176 -30 19 -37 20 -65 9 -161 -65 -320 -52 -453 35 -49
33 -101 84 -120 118 -6 10 -39 22 -87 31 -92 18 -113 19 -121 5z"/>
<path d="M1569 983 c-13 -16 -12 -17 4 -4 16 13 21 21 13 21 -2 0 -10 -8 -17
-17z"/>
</g>
</svg>
